<svg xmlns="http://www.w3.org/2000/svg" height="209.947" width="181.573"><path d="M29.69 62.71c4.833 2.406 5.135 8.594 3.149 11.677-5.985 9.268 5.453 19.893 18.14 16.062 6.438-1.955 7.87-8.547 12.357-7.838 1.98.315 1.763-9.544-3.526-5.805-8.885 6.294-16.612 4.08-15.29-1.274 1.027-4.156.933-7.11-.658-9.427-1.315-1.916-2.281-3.192-5.411-3.744 3.13-.573 4.096-1.836 5.411-3.753 1.591-2.312 1.685-5.265.659-9.421-1.323-5.352 6.404-7.574 15.289-1.279 5.289 3.732 5.505-6.12 3.526-5.808-4.487.713-5.92-5.888-12.357-7.828-12.687-3.841-24.125 6.773-18.14 16.057 1.986 3.082 1.684 9.276-3.144 11.675l-.005.705" fill="#231f20"/><path d="M107.8-.004c-18.217 8.99-40.662 16.945-49.016 35.305-8.51 18.722-7.82 47.812-.065 65.526 4.596 3.75 17.547 18.633 23.11 21.875-.368-16.422 4.512-65.977 4.512-65.977L107.8-.004" fill="#231f20"/><path d="M104.458 5.747c-16.672 8.213-36.302 13.21-43.187 30.33-6.893 17.135-5.526 46.065-.552 62.27 4.208 3.42 12.21 16.055 21.427 20.25-.35-15.012 3.708-61.465 3.708-61.465l18.604-51.385" fill="#231f20"/><path d="M107.8-.004c5.643.205 29.26 27.336 30.541 57.688.388 9.08.44 17.17-1.82 32.114-6.656 11.45-39.81 31.469-54.693 32.904-.216-2.81-1.065-8.63-1.281-11.76-.69-9.852-1.737-15.636-1.047-25.636 2.966-43.307 15.18-71.92 28.3-85.31" fill="#231f20"/><path d="M108.596 8.561c6.253 3.131 22.808 26.318 23.506 49.688.263 8.63.223 16.851-1.487 29.531-5.51 6.734-25.735 20.583-42.183 25.161-2.09-5.927-2.88-15.171-3.492-27.45-2.052-40.779 17.12-72.422 23.656-76.93" fill="#fff"/><path d="M108.307 44.361l5.545-2.706-.151 14.049 9.645-9.588 1.935 6.237-9.976 8.654 6.648 7.732-4.406 6.65-6.01-8.846-5.514 14.461-4.601-2.253 6.265-14.026-10.127 1.14 1.625-7.984 9.844.092-.722-13.612" fill="#231f20"/><path d="M94.128 11.81c-3.586 5.52-14.805 10.637-22.217 18.56-7.38 7.907-8.885 15.738-11.903 20.77 1-6.01 2.984-12.008 5.122-15.772 7.604-13.372 21.768-18.708 28.998-23.557" fill="#fff"/><path d="M0 143.03h6.06v2.778h.086c.841-1.601 2.903-3.285 5.976-3.285 6.396 0 7.573 4.21 7.573 9.681v11.279h-6.312v-10.015c0-2.36-.042-5.388-3.284-5.388-3.281 0-3.784 2.564-3.784 5.216v10.187H0v-20.454M34.89 158.43c3.157 0 5.05-2.103 5.05-5.174 0-3.072-1.893-5.176-5.05-5.176-3.158 0-5.051 2.104-5.051 5.176 0 3.07 1.893 5.175 5.052 5.175zm0-15.907c6.313 0 11.36 4.21 11.36 10.733 0 6.524-5.047 10.73-11.36 10.73-6.312 0-11.361-4.206-11.361-10.73 0-6.523 5.05-10.733 11.362-10.733M71.885 149.045c-.921-1.134-2.143-1.721-3.658-1.721-1.052 0-2.316.461-2.316 1.683 0 3.025 10.649.461 10.649 8.246 0 5.217-5.052 6.732-9.43 6.732-2.86 0-6.015-.713-8.036-2.778l3.83-4.247c1.18 1.43 2.566 2.23 4.461 2.23 1.43 0 2.86-.382 2.86-1.475 0-3.282-10.643-.503-10.643-8.287 0-4.801 4.291-6.905 8.583-6.905 2.693 0 5.68.676 7.575 2.697l-3.875 3.825M95.375 148.08H89.82v6.817c0 2.187.253 3.785 2.987 3.785.675 0 2.021-.082 2.568-.587v5.261c-1.388.501-2.945.63-4.42.63-4.205 0-7.447-1.727-7.447-6.185v-9.721h-4.04v-5.05h4.04v-6.058h6.312v6.057h5.555v5.051M111.031 154.52c-1.937 0-6.229.167-6.229 2.945 0 1.512 1.6 2.229 2.987 2.229 2.482 0 4.797-1.305 4.797-3.829v-1.345zm1.555 6.395h-.083c-1.391 2.185-3.912 3.07-6.48 3.07-3.83 0-7.28-2.186-7.28-6.31 0-7.07 8.585-7.195 13.843-7.195 0-2.232-1.852-3.664-4.04-3.664-2.06 0-3.786.928-5.132 2.44l-3.367-3.448c2.315-2.187 5.68-3.285 9.005-3.285 7.365 0 9.341 3.75 9.341 10.561v10.399h-5.807v-2.568M122.987 143.03h6.312v3.28h.084c1.349-2.478 3.114-3.787 5.893-3.787.713 0 1.516.047 2.104.21v5.768c-.885-.253-1.77-.421-2.692-.421-4.8 0-5.389 2.776-5.389 6.859v8.544h-6.312v-20.454M153.75 149.639c-.633-.888-1.81-1.559-3.114-1.559-3.155 0-5.048 2.104-5.048 5.176 0 3.07 1.893 5.175 5.048 5.175 1.39 0 2.4-.716 3.115-1.558l4.164 4.38c-1.975 2.02-4.879 2.732-7.279 2.732-6.31 0-11.363-4.205-11.363-10.729 0-6.523 5.052-10.733 11.363-10.733 2.4 0 5.304.716 7.279 2.736l-4.164 4.38M168.19 136.972v8.836h.083c.591-1.601 2.654-3.285 5.724-3.285 6.396 0 7.574 4.21 7.574 9.681v11.279h-6.311v-10.015c0-2.36-.041-5.388-3.284-5.388-3.281 0-3.785 2.564-3.785 5.216v10.187h-6.314v-26.51h6.314M49.372 198.837c3.157 0 5.05-2.104 5.05-5.174 0-3.071-1.893-5.178-5.05-5.178-3.158 0-5.052 2.107-5.052 5.178 0 3.07 1.894 5.174 5.052 5.174zm-10.859-15.4h5.807v2.692h.086c.966-1.469 3.407-3.201 6.271-3.201 6.057 0 10.055 4.38 10.055 10.562 0 5.683-3.534 10.902-9.341 10.902-2.607 0-5.047-.714-6.48-2.693h-.086v8.248h-6.312v-26.51M64.651 183.436h6.315v3.281h.08c1.35-2.478 3.115-3.79 5.894-3.79.714 0 1.516.048 2.104.212v5.77c-.883-.254-1.768-.424-2.692-.424-4.797 0-5.386 2.776-5.386 6.86v8.544h-6.315v-20.453M95.375 191.348c.039-2.104-1.602-3.873-3.875-3.873-2.773 0-4.29 1.893-4.458 3.873zm5.344 9.003c-2.018 2.566-5.344 4.041-8.63 4.041-6.31 0-11.36-4.205-11.36-10.73 0-6.523 5.05-10.734 11.36-10.734 5.893 0 9.596 4.21 9.596 10.735v1.978H87.042c.502 2.394 2.315 3.954 4.755 3.954 2.062 0 3.45-1.053 4.502-2.482l4.42 3.238M117.43 189.455c-.925-1.139-2.144-1.724-3.66-1.724-1.054 0-2.314.46-2.314 1.684 0 3.024 10.646.458 10.646 8.245 0 5.216-5.05 6.732-9.427 6.732-2.862 0-6.019-.714-8.037-2.779l3.83-4.248c1.178 1.431 2.566 2.23 4.46 2.23 1.431 0 2.861-.378 2.861-1.474 0-3.281-10.646-.502-10.646-8.286 0-4.8 4.292-6.907 8.584-6.907 2.692 0 5.682.68 7.575 2.699l-3.872 3.828M138.388 189.455c-.921-1.139-2.143-1.724-3.659-1.724-1.052 0-2.315.46-2.315 1.684 0 3.024 10.649.458 10.649 8.245 0 5.216-5.052 6.732-9.427 6.732-2.863 0-6.019-.714-8.04-2.779l3.834-4.248c1.177 1.431 2.562 2.23 4.458 2.23 1.43 0 2.86-.378 2.86-1.474 0-3.281-10.644-.502-10.644-8.286 0-4.8 4.292-6.907 8.584-6.907 2.692 0 5.681.68 7.575 2.699l-3.875 3.828" fill="#231f20"/></svg>